<svg width="320" height="320" viewBox="0 0 320 320" fill="none" xmlns="http://www.w3.org/2000/svg">
  <rect width="320" height="320" rx="28" fill="#0F1720"/>
  <rect x="24" y="24" width="272" height="272" rx="20" fill="#111B25" stroke="#7BA0A8" stroke-opacity="0.35"/>
  <rect x="52" y="52" width="42" height="42" rx="8" fill="#D9E6EA"/>
  <rect x="104" y="52" width="18" height="18" rx="4" fill="#D9E6EA"/>
  <rect x="130" y="52" width="18" height="42" rx="4" fill="#8D9B6B"/>
  <rect x="158" y="52" width="42" height="18" rx="4" fill="#D9E6EA"/>
  <rect x="208" y="52" width="36" height="36" rx="8" fill="#D9E6EA"/>
  <rect x="52" y="104" width="18" height="60" rx="4" fill="#8D9B6B"/>
  <rect x="80" y="104" width="44" height="18" rx="4" fill="#D9E6EA"/>
  <rect x="132" y="104" width="18" height="18" rx="4" fill="#D9E6EA"/>
  <rect x="158" y="104" width="86" height="18" rx="4" fill="#D9E6EA"/>
  <rect x="80" y="132" width="18" height="18" rx="4" fill="#D9E6EA"/>
  <rect x="106" y="132" width="42" height="42" rx="8" fill="#7BA0A8"/>
  <rect x="156" y="132" width="18" height="42" rx="4" fill="#D9E6EA"/>
  <rect x="182" y="132" width="62" height="18" rx="4" fill="#8D9B6B"/>
  <rect x="52" y="182" width="42" height="42" rx="8" fill="#D9E6EA"/>
  <rect x="104" y="182" width="18" height="42" rx="4" fill="#D9E6EA"/>
  <rect x="130" y="182" width="44" height="18" rx="4" fill="#8D9B6B"/>
  <rect x="182" y="182" width="62" height="42" rx="8" fill="#D9E6EA"/>
  <rect x="52" y="234" width="18" height="18" rx="4" fill="#D9E6EA"/>
  <rect x="78" y="234" width="46" height="18" rx="4" fill="#8D9B6B"/>
  <rect x="132" y="234" width="18" height="44" rx="4" fill="#D9E6EA"/>
  <rect x="158" y="234" width="18" height="18" rx="4" fill="#D9E6EA"/>
  <rect x="184" y="234" width="60" height="18" rx="4" fill="#D9E6EA"/>
  <text x="160" y="299" text-anchor="middle" fill="#D9E6EA" fill-opacity="0.8" font-size="14" font-family="Arial, sans-serif">QR Code Placeholder</text>
</svg>
